<svg xmlns="http://www.w3.org/2000/svg" xmlns:xlink="http://www.w3.org/1999/xlink" id="Layer_1" x="0px" y="0px" viewBox="0 0 190 128" style="enable-background:new 0 0 190 128;" xml:space="preserve"> <g> <g> <path d="M36.4,65.1c0,9.2-7.4,17.3-16.9,17.3c-8.2,0-17.6-4-17.6-17.6V23.9c0-9.8,7-17.1,17.4-17.1c9.9,0,17.1,7.4,17.1,17.7v4.2 H25.7v-3.5c0-4.2-2.5-7.7-6.6-7.7c-5.3,0-6.6,3.6-6.6,8.6v38c0,4.3,1.7,7.6,6.5,7.6c3,0,6.7-1.7,6.7-7.5v-3.6h10.7V65.1z"></path> <path d="M79.6,28.7H68.9v-2.4c0-4.9-2-9-7.5-9c-5.9,0-7.2,4.7-7.2,9.7c0,5.8,0.6,7.7,6,9.9l8.2,3.3c9.4,3.5,11.1,9.5,11.1,20.3 c0,12.5-4.5,21.8-18.4,21.8C50.8,82.3,43,74.7,43,64.7v-4h10.7v3.3c0,3.9,2,7.6,7.5,7.6c7.2,0,7.7-4.3,7.7-11.1 c0-7.9-0.9-9.2-6.1-11.2l-7.6-3.1c-9.2-3.7-11.6-9.8-11.6-19.1c0-11.2,6-20.3,18.3-20.3c10.7,0,17.7,8.5,17.7,16.8V28.7z"></path> <path d="M87.5,7.4h15.6c13.7,0,19,9.1,19,18.8V29c0,7.9-2.6,10.9-7.3,13.7c5,2.4,7.3,6.9,7.3,14.6v4.1c0,12.9-6.1,20.2-20,20.2 H87.5V7.4z M98.2,37.8h4.8c7.2,0,9-3.6,9-10.4c0-6.6-2.4-10-9.4-10h-4.4v20.4H98.2z M98.2,71.1h4.5c8.5,0,9.2-5.2,9.2-12.5 c0-7.4-1.4-11.2-9.1-11.2h-4.7V71.1z"></path> <path d="M132,7.4h10.2L156,46.8h0.2l13.6-39.4h10.3v74.4h-10.7V36.5h-0.2l-10.6,32h-5.3l-10.6-32h-0.2v45.2h-10.7V7.4H132z"></path> </g> <g> <path d="M6.8,104.6c-1.6,0-3-0.6-4-1.6c-1.5-1.5-1.5-3.2-1.5-6.1s0-4.7,1.5-6.1c1-1,2.4-1.6,4-1.6c2.8,0,4.9,1.7,5.5,4.7H9.8 c-0.3-1.6-1.4-2.6-3.1-2.6c-0.9,0-1.7,0.3-2.3,0.9c-0.8,0.8-0.9,1.7-0.9,4.8s0.2,4,0.9,4.8c0.6,0.6,1.4,0.9,2.3,0.9 c1.7,0,2.7-1,3.1-2.6h2.4C11.7,103,9.5,104.6,6.8,104.6z"></path> <path d="M23.8,104.5v-6.7h-6.1v6.7h-2.3V89.2h2.3v6.5h6.2v-6.5h2.3v15.3H23.8z"></path> <path d="M38.9,104.5l-1-3.1h-6l-1,3.1h-2.5l5.6-15.3h1.8l5.6,15.3H38.9z M34.9,92.7l-2.4,6.8h4.7L34.9,92.7z"></path> <path d="M52,104.5L48.8,98h-3v6.5h-2.3V89.2h5.9c2.8,0,4.8,1.8,4.8,4.4c0,2.2-1.4,3.6-3.1,4.1l3.5,6.8H52z M49.4,91.3h-3.4v4.8 h3.4c1.6,0,2.6-0.9,2.6-2.4C51.9,92.2,50.8,91.3,49.4,91.3z"></path> <path d="M62.8,91.3v13.2h-2.3V91.3h-4.2v-2h10.8v2H62.8z"></path> <path d="M69.7,104.5V89.2h9.8v2H72v4.4h6.4v2.2H72v4.5h7.5v2h-9.8V104.5z"></path> <path d="M91,104.5L87.8,98H85v6.5h-2.3V89.2h5.9c2.8,0,4.8,1.8,4.8,4.4c0,2.2-1.4,3.6-3.1,4.1l3.5,6.8H91z M88.3,91.3h-3.4v4.8 h3.4c1.6,0,2.6-0.9,2.6-2.4C90.9,92.2,89.9,91.3,88.3,91.3z"></path> <path d="M105.8,104.6c-2.3,0-4-0.6-5.5-2l1.6-1.5c1.1,1.1,2.4,1.5,3.9,1.5c2,0,3.2-0.9,3.2-2.4c0-0.7-0.2-1.2-0.6-1.6 c-0.3-0.3-0.8-0.6-1.7-0.7l-1.8-0.2c-1.2-0.2-2.3-0.6-3-1.2c-0.8-0.7-1.1-1.7-1.1-3c0-2.6,1.9-4.5,5.1-4.5c2,0,3.4,0.6,4.8,1.7 l-1.5,1.5c-0.9-0.9-2-1.1-3.3-1.1c-1.8,0-2.8,1-2.8,2.4c0,0.6,0.2,1,0.6,1.4c0.3,0.3,1,0.6,1.7,0.7l1.7,0.2 c1.4,0.2,2.2,0.6,2.8,1.1c0.8,0.7,1.2,1.8,1.2,3.2C111.4,102.9,109.1,104.6,105.8,104.6z"></path> <path d="M119.4,104.6c-1.6,0-3-0.6-4-1.6c-1.5-1.5-1.5-3.2-1.5-6.1s0-4.7,1.5-6.1c1-1,2.4-1.6,4-1.6c2.8,0,4.9,1.7,5.5,4.7h-2.4 c-0.3-1.6-1.4-2.6-3.1-2.6c-0.9,0-1.7,0.3-2.3,0.9c-0.8,0.8-0.9,1.7-0.9,4.8s0.1,4,0.9,4.8c0.6,0.6,1.4,0.9,2.3,0.9 c1.7,0,2.7-1,3.1-2.6h2.4C124.3,103,122.1,104.6,119.4,104.6z"></path> <path d="M136.4,104.5v-6.7h-6.2v6.7h-2.3V89.2h2.3v6.5h6.2v-6.5h2.3v15.3H136.4z"></path> <path d="M151.8,103c-1,1-2.4,1.6-4.1,1.6s-3-0.6-4-1.6c-1.5-1.5-1.5-3.2-1.5-6.1s0-4.7,1.5-6.1c1-1,2.4-1.6,4-1.6s3,0.6,4.1,1.6 c1.5,1.5,1.5,3.2,1.5,6.1C153.1,99.8,153.2,101.5,151.8,103z M150,92.1c-0.6-0.6-1.4-0.9-2.3-0.9s-1.7,0.3-2.3,0.9 c-0.8,0.8-0.9,1.7-0.9,4.8s0.1,4,0.9,4.8c0.6,0.6,1.4,0.9,2.3,0.9s1.7-0.3,2.3-0.9c0.8-0.8,0.9-1.7,0.9-4.8S150.8,92.9,150,92.1z"></path> <path d="M165.6,103c-1,1-2.4,1.6-4.1,1.6c-1.6,0-3-0.6-4-1.6c-1.5-1.5-1.5-3.2-1.5-6.1s0-4.7,1.5-6.1c1-1,2.4-1.6,4-1.6 s3,0.6,4.1,1.6c1.5,1.5,1.5,3.2,1.5,6.1C167,99.8,167.1,101.5,165.6,103z M163.8,92.1c-0.6-0.6-1.4-0.9-2.3-0.9s-1.7,0.3-2.3,0.9 c-0.8,0.8-0.9,1.7-0.9,4.8s0.1,4,0.9,4.8c0.6,0.6,1.4,0.9,2.3,0.9s1.7-0.3,2.3-0.9c0.8-0.8,0.9-1.7,0.9-4.8S164.6,92.9,163.8,92.1 z"></path> <path d="M170.5,104.5V89.2h2.3v13.2h7.4v2h-9.7V104.5z"></path> </g> <g> <path d="M5.4,121.2H1.2V111h4c1.9,0,3.1,1,3.1,2.8c0,1.1-0.7,1.9-1.4,2.2c0.8,0.3,1.6,1,1.6,2.4C8.5,120.1,7.2,121.2,5.4,121.2z M5.1,112.3H2.8v3h2.3c1,0,1.7-0.6,1.7-1.5S6.1,112.3,5.1,112.3z M5.3,116.6H2.8v3.1h2.5c1,0,1.7-0.7,1.7-1.6 C6.9,117.3,6.3,116.6,5.3,116.6z"></path> <path d="M15.1,121.3c-2,0-3.6-1.5-3.6-3.5V111H13v6.7c0,1.4,0.8,2.2,2.2,2.2c1.2,0,2.2-0.8,2.2-2.2V111h1.6v6.8 C18.7,119.8,17.1,121.3,15.1,121.3z"></path> <path d="M24.6,121.3c-1.6,0-2.6-0.3-3.6-1.4l1-1c0.8,0.8,1.6,1,2.6,1c1.4,0,2.2-0.6,2.2-1.6c0-0.5-0.1-0.8-0.5-1 c-0.2-0.2-0.6-0.3-1.1-0.5l-1.2-0.2c-0.8-0.1-1.5-0.5-1.9-0.8c-0.5-0.5-0.8-1.1-0.8-1.9c0-1.8,1.2-3,3.4-3c1.4,0,2.3,0.3,3.2,1.1 l-1,1c-0.7-0.6-1.4-0.8-2.3-0.8c-1.2,0-1.8,0.7-1.8,1.6c0,0.3,0.1,0.7,0.3,0.9c0.2,0.2,0.7,0.5,1.1,0.5l1.1,0.2 c0.9,0.1,1.5,0.3,1.9,0.8c0.6,0.5,0.8,1.2,0.8,2C28.3,120.1,26.8,121.3,24.6,121.3z"></path> <path d="M31.1,121.2V111h1.6v10.2H31.1z"></path> <path d="M42.3,121.2l-4.8-7.2v7.2H36V111h1.5l4.8,7.2V111h1.6v10.2H42.3z"></path> <path d="M47.1,121.2V111h6.6v1.4h-5v3h4.2v1.4h-4.2v3.1h5v1.4h-6.6V121.2z"></path> <path d="M59.2,121.3c-1.6,0-2.6-0.3-3.6-1.4l1-1c0.8,0.8,1.6,1,2.6,1c1.4,0,2.2-0.6,2.2-1.6c0-0.5-0.1-0.8-0.5-1 c-0.2-0.2-0.6-0.3-1.1-0.5l-1.2-0.2c-0.8-0.1-1.5-0.5-1.9-0.8c-0.5-0.5-0.8-1.1-0.8-1.9c0-1.8,1.2-3,3.4-3c1.4,0,2.3,0.3,3.2,1.1 l-1,1c-0.7-0.6-1.4-0.8-2.3-0.8c-1.2,0-1.8,0.7-1.8,1.6c0,0.3,0.1,0.7,0.3,0.9c0.2,0.2,0.7,0.5,1.1,0.5l1.1,0.2 c0.9,0.1,1.5,0.3,1.9,0.8c0.6,0.5,0.8,1.2,0.8,2C62.9,120.1,61.4,121.3,59.2,121.3z"></path> <path d="M68.3,121.3c-1.6,0-2.6-0.3-3.6-1.4l1-1c0.8,0.8,1.6,1,2.6,1c1.4,0,2.2-0.6,2.2-1.6c0-0.5-0.1-0.8-0.5-1 c-0.2-0.2-0.6-0.3-1.1-0.5l-1.2-0.2c-0.8-0.1-1.5-0.5-1.9-0.8c-0.5-0.5-0.8-1.1-0.8-1.9c0-1.8,1.2-3,3.4-3c1.4,0,2.3,0.3,3.2,1.1 l-1,1c-0.7-0.6-1.4-0.8-2.3-0.8c-1.2,0-1.8,0.7-1.8,1.6c0,0.3,0.1,0.7,0.3,0.9c0.2,0.2,0.7,0.5,1.1,0.5l1.1,0.2 c0.9,0.1,1.5,0.3,1.9,0.8c0.6,0.5,0.8,1.2,0.8,2C72,120.1,70.4,121.3,68.3,121.3z"></path> <path d="M86.4,121.2v-6.8l-2.4,5h-1.1l-2.4-5v6.8h-1.6V111h1.6l3,6.4l3-6.4H88v10.2H86.4z"></path> <path d="M97.2,121.2l-0.7-2h-4.1l-0.7,2H90l3.7-10.2H95l3.7,10.2H97.2z M94.4,113.2l-1.6,4.5H96L94.4,113.2z"></path> <path d="M107.3,121.2l-4.8-7.2v7.2h-1.6V111h1.5l4.8,7.2V111h1.6v10.2H107.3z"></path> <path d="M117.9,121.2l-0.7-2h-4.1l-0.7,2h-1.7l3.7-10.2h1.2l3.7,10.2H117.9z M115.2,113.2l-1.6,4.5h3.2L115.2,113.2z"></path> <path d="M127.7,120c-0.8,0.8-1.7,1.1-2.8,1.1c-1,0-1.9-0.3-2.7-1.1c-1-1-1-2.2-1-4.1s0-3.1,1-4.1c0.7-0.7,1.6-1.1,2.7-1.1 c2.2,0,3.4,1.5,3.7,3.2H127c-0.2-1.1-1-1.8-2.2-1.8c-0.6,0-1.1,0.2-1.5,0.7c-0.5,0.6-0.6,1.1-0.6,3.2c0,2,0.1,2.6,0.6,3.2 c0.3,0.3,0.9,0.6,1.5,0.6c0.7,0,1.2-0.2,1.7-0.7c0.3-0.5,0.6-0.9,0.6-1.6v-0.6H125v-1.4h3.7v1.6 C128.6,118.4,128.4,119.4,127.7,120z"></path> <path d="M131.7,121.2V111h6.6v1.4h-5v3h4.2v1.4h-4.2v3.1h5v1.4h-6.6V121.2z"></path> <path d="M148.5,121.2v-6.8l-2.4,5H145l-2.4-5v6.8H141V111h1.6l3,6.4l3-6.4h1.6v10.2H148.5z"></path> <path d="M153.5,121.2V111h6.6v1.4h-5v3h4.2v1.4h-4.2v3.1h5v1.4h-6.6V121.2z"></path> <path d="M169,121.2l-4.8-7.2v7.2h-1.6V111h1.5l4.8,7.2V111h1.6v10.2H169z"></path> <path d="M177.3,112.3v8.9h-1.6v-8.9h-2.8V111h7.2v1.4H177.3z"></path> </g> <g> <path d="M185.8,7.5c1.6,0,3,1.4,3,3s-1.4,3-3,3s-3-1.4-3-3S184.2,7.5,185.8,7.5z M185.8,13c1.4,0,2.5-1.1,2.5-2.5S187.2,8,185.8,8 c-1.4,0-2.5,1.1-2.5,2.5C183.5,11.8,184.6,13,185.8,13z M184.8,11.9V8.9h1.1c0.8,0,1.1,0.5,1.1,0.9c0,0.5-0.2,0.8-0.7,0.9l0.8,1.2 h-0.6l-0.8-1.1h-0.6v1.1C185.3,11.9,184.8,11.9,184.8,11.9z M185.8,10.3c0.6,0,0.7-0.2,0.7-0.6c0-0.2-0.2-0.5-0.7-0.5h-0.6v1 H185.8z"></path> </g> </g> </svg>